<svg width="85" height="84" viewBox="0 0 85 84" fill="none" xmlns="http://www.w3.org/2000/svg">
<path d="M77.8612 83.9999H8.0363C7.1042 84.0058 6.18018 83.8268 5.3177 83.4733C4.45521 83.1198 3.67137 82.5988 3.01153 81.9404C2.3517 81.2821 1.82895 80.4994 1.47354 79.6377C1.11813 78.776 0.937101 77.8524 0.940938 76.9202V7.09542C0.93503 6.16332 1.114 5.2393 1.4675 4.37681C1.82099 3.51433 2.342 2.73049 3.00037 2.07065C3.65875 1.41082 4.44142 0.888071 5.30312 0.532659C6.16482 0.177248 7.08844 -0.00377631 8.02055 5.97128e-05H78.1184C81.7961 5.97128e-05 84.9408 3.14218 84.9408 7.07967V76.9176C84.9408 80.8551 81.7987 83.9972 77.8612 83.9972V83.9999ZM42.9409 13.9204H32.4409C27.7791 13.9225 23.3089 15.7753 20.0125 19.0716C16.7162 22.368 14.8634 26.8382 14.8613 31.5V52.4999C14.8634 57.1617 16.7162 61.6319 20.0125 64.9283C23.3089 68.2246 27.7791 70.0774 32.4409 70.0795H53.4408C58.1026 70.0774 62.5728 68.2246 65.8692 64.9283C69.1656 61.6319 71.0184 57.1617 71.0204 52.4999V38.5796C71.0204 36.4901 69.4481 34.9177 67.3455 34.9177H63.9408C62.1112 34.9177 60.5205 33.3296 60.5205 31.4974C60.5215 29.1877 60.0676 26.9005 59.1847 24.7663C58.3018 22.6321 57.0072 20.6927 55.3748 19.0588C53.7424 17.425 51.8041 16.1286 49.6707 15.2438C47.5373 14.359 45.2505 13.9031 42.9409 13.902V13.9204ZM53.7007 55.9203H32.4409C30.6113 55.9203 29.0205 54.3322 29.0205 52.4999C29.0205 50.6677 30.6086 49.0796 32.4409 49.0796H53.7007C55.5487 49.0796 57.1211 50.6546 57.1211 52.4999C57.1211 54.3453 55.5487 55.9203 53.7007 55.9203ZM44.7705 28.0796C46.6185 28.0796 48.1909 29.6677 48.1909 31.5C48.1909 33.3322 46.6185 34.9204 44.7705 34.9204H32.181C30.333 34.9204 28.7606 33.3322 28.7606 31.5C28.7606 29.6677 30.333 28.0796 32.181 28.0796H44.7705Z" fill="black"/>
</svg>
