<svg width="113" height="84" viewBox="0 0 113 84" fill="none" xmlns="http://www.w3.org/2000/svg">
<path d="M56.2347 31.0652C48.1953 31.0652 41.6346 35.9789 41.6346 42C41.6346 48.0211 48.1953 52.9347 56.2347 52.9347C64.274 52.9347 70.8347 48.0211 70.8347 42C70.8347 35.9789 64.274 31.0652 56.2347 31.0652ZM100.024 42C100.024 37.4719 100.079 32.9847 99.7391 28.4648C99.3996 23.2148 97.8005 18.5555 92.6746 14.7164C87.5377 10.8691 81.3275 9.67967 74.3177 9.42538C68.2718 9.17108 62.2806 9.2121 56.2456 9.2121C50.1997 9.2121 44.2085 9.17108 38.1735 9.42538C31.1638 9.67967 24.9426 10.8773 19.8167 14.7164C14.6798 18.5637 13.0917 23.2148 12.7521 28.4648C12.4126 32.993 12.4674 37.4801 12.4674 42C12.4674 46.5199 12.4126 51.0152 12.7521 55.5351C13.0917 60.7851 14.6908 65.4445 19.8167 69.2836C24.9535 73.1308 31.1638 74.3203 38.1735 74.5746C44.2195 74.8289 50.2106 74.7879 56.2456 74.7879C62.2916 74.7879 68.2827 74.8289 74.3177 74.5746C81.3275 74.3203 87.5487 73.1226 92.6746 69.2836C97.8114 65.4363 99.3996 60.7851 99.7391 55.5351C100.09 51.0152 100.024 46.5281 100.024 42ZM56.2347 58.8246C43.8033 58.8246 33.7705 51.3105 33.7705 42C33.7705 32.6894 43.8033 25.1754 56.2347 25.1754C68.6661 25.1754 78.6988 32.6894 78.6988 42C78.6988 51.3105 68.6661 58.8246 56.2347 58.8246ZM79.6189 28.4156C76.7164 28.4156 74.3725 26.6601 74.3725 24.4863C74.3725 22.3125 76.7164 20.557 79.6189 20.557C82.5213 20.557 84.8652 22.3125 84.8652 24.4863C84.8661 25.0025 84.731 25.5137 84.4676 25.9908C84.2043 26.4678 83.8179 26.9012 83.3305 27.2662C82.8432 27.6312 82.2645 27.9206 81.6276 28.1178C80.9907 28.3151 80.3081 28.4163 79.6189 28.4156Z" fill="black"/>
</svg>
