<svg width="113" height="84" viewBox="0 0 113 84" fill="none" xmlns="http://www.w3.org/2000/svg">
<path fill-rule="evenodd" clip-rule="evenodd" d="M4.67316 9.93301C4.67316 8.22687 5.5781 6.59061 7.18891 5.38419C8.79972 4.17777 10.9844 3.50001 13.2625 3.50001H98.8846C100.013 3.49863 101.132 3.66403 102.175 3.98674C103.219 4.30946 104.167 4.78314 104.966 5.38069C105.764 5.97823 106.398 6.68789 106.83 7.46904C107.262 8.2502 107.484 9.0875 107.483 9.93301V74.06C107.484 74.9057 107.263 75.7432 106.832 76.5248C106.4 77.3063 105.767 78.0164 104.969 78.6146C104.171 79.2127 103.223 79.6871 102.18 80.0107C101.137 80.3342 100.018 80.5005 98.8892 80.5H13.2625C12.1341 80.5 11.0168 80.3335 9.9744 80.01C8.932 79.6865 7.98491 79.2123 7.18726 78.6146C6.3896 78.0169 5.75702 77.3073 5.32564 76.5264C4.89426 75.7455 4.67254 74.9086 4.67316 74.0635V9.93301ZM45.3673 32.858H59.2887V38.094C61.2981 35.084 66.4386 32.375 74.1634 32.375C88.9727 32.375 92.4823 38.3705 92.4823 49.371V69.748H77.4954V51.877C77.4954 45.612 75.4859 42.077 70.3828 42.077C63.3029 42.077 60.3588 45.8885 60.3588 51.877V69.748H45.3673V32.858ZM19.6647 69.2685H34.6563V32.375H19.6647V69.265V69.2685ZM36.8013 20.342C36.8296 21.3034 36.6012 22.2593 36.1295 23.1536C35.6578 24.048 34.9524 24.8627 34.0546 25.5501C33.1567 26.2375 32.0847 26.7837 30.9012 27.1565C29.7177 27.5294 28.4468 27.7215 27.1629 27.7215C25.879 27.7215 24.608 27.5294 23.4245 27.1565C22.2411 26.7837 21.169 26.2375 20.2712 25.5501C19.3734 24.8627 18.6679 24.048 18.1962 23.1536C17.7246 22.2593 17.4962 21.3034 17.5244 20.342C17.5799 18.455 18.6197 16.6593 20.4213 15.3394C22.2228 14.0195 24.6427 13.2805 27.1629 13.2805C29.683 13.2805 32.103 14.0195 33.9045 15.3394C35.706 16.6593 36.7458 18.455 36.8013 20.342Z" fill="black"/>
</svg>
