<svg width="101" height="76" viewBox="0 0 101 76" fill="none" xmlns="http://www.w3.org/2000/svg">
<path d="M50.4704 0C37.0848 0 24.2474 3.98249 14.7824 11.0714C5.31734 18.1602 -6.10352e-05 27.7748 -6.10352e-05 37.8C-6.10352e-05 47.8252 5.31734 57.4398 14.7824 64.5286C24.2474 71.6175 37.0848 75.6 50.4704 75.6C63.856 75.6 76.6933 71.6175 86.1583 64.5286C95.6234 57.4398 100.941 47.8252 100.941 37.8C100.941 27.7748 95.6234 18.1602 86.1583 11.0714C76.6933 3.98249 63.856 0 50.4704 0V0ZM6.22463 40.656H20.3003C20.5246 44.478 21.2368 48.2748 22.4312 51.996H10.3183C8.05954 48.4297 6.67302 44.5889 6.22463 40.656ZM54.2837 17.976V4.998C59.6879 6.53614 64.1285 9.53242 66.7331 13.398C67.8827 14.8554 68.8977 16.3716 69.7613 17.934L54.2837 17.976ZM72.3409 23.646C73.6419 27.3546 74.4158 31.1556 74.6401 34.986H54.2837V23.646H72.3409ZM46.657 4.998V17.976H31.1794C32.0445 16.4123 33.0565 14.8965 34.2077 13.44C36.8011 9.55858 41.2432 6.54638 46.657 4.998ZM46.657 23.646V34.986H26.3567C26.581 31.1556 27.3549 27.3546 28.6559 23.646H46.657ZM20.3003 34.944H6.22463C6.67302 31.0111 8.05954 27.1703 10.3183 23.604H22.4312C21.2345 27.3237 20.5208 31.1214 20.3003 34.944ZM26.3567 40.656H46.657V51.996H28.6559C27.3551 48.2877 26.5844 44.4863 26.3567 40.656ZM46.7131 57.456V70.434C41.309 68.8959 36.8683 65.8996 34.2638 62.034C33.1125 60.5775 32.1006 59.0617 31.2355 57.498L46.7131 57.456ZM54.2837 70.434V57.666H69.7613C68.8962 59.2297 67.8843 60.7455 66.7331 62.202C64.1285 66.0676 59.6879 69.0639 54.2837 70.602V70.434ZM54.2837 51.786V40.446H74.584C74.3564 44.2763 73.5856 48.0777 72.2848 51.786H54.2837ZM80.6965 40.446H94.7722C94.3238 44.3789 92.9373 48.2197 90.6785 51.786H78.5095C79.6871 48.132 80.3993 44.4066 80.6405 40.656L80.6965 40.446ZM80.6965 34.776C80.4397 31.0225 79.7074 27.2958 78.5095 23.646H90.6224C92.8823 27.216 94.2675 31.0548 94.7161 34.986L80.6965 34.776ZM86.3044 17.976H76.2664C74.4501 14.1553 71.8176 10.5807 68.4715 7.392C75.4498 9.73803 81.5112 13.3814 86.0801 17.976H86.3044ZM32.4692 7.392C29.1232 10.5807 26.4906 14.1553 24.6744 17.976H14.8607C19.4295 13.3814 25.491 9.73803 32.4692 7.392ZM14.8046 57.792H24.6744C26.4906 61.6127 29.1232 65.1873 32.4692 68.376C25.4717 65.9947 19.4083 62.3068 14.8607 57.666L14.8046 57.792ZM68.4154 68.376C71.7615 65.1873 74.394 61.6127 76.2103 57.792H86.0801C81.4833 62.325 75.4243 65.9091 68.4715 68.208L68.4154 68.376Z" fill="black"/>
</svg>
